<svg preserveAspectRatio="xMidYMid meet" data-bbox="29.5 29.5 141 141" viewBox="29.5 29.5 141 141" height="200" width="200" xmlns="http://www.w3.org/2000/svg" data-type="color" role="presentation" aria-hidden="true" aria-label=""><defs><style>#comp-m3aplves__item1 svg [data-color="1"] {fill: #007478;}</style></defs>
    <g>
        <path d="M156.48 107.01v46.292c0 9.483-7.715 17.198-17.198 17.198H46.698c-9.483 0-17.198-7.715-17.198-17.198V60.718c0-9.483 7.715-17.198 17.198-17.198H92.99a3.972 3.972 0 0 1 0 7.944H46.698c-5.103 0-9.254 4.151-9.254 9.254v92.583c0 5.103 4.151 9.254 9.254 9.254h92.583c5.103 0 9.254-4.151 9.254-9.254V107.01a3.972 3.972 0 0 1 7.945 0zm8.756-46.79l-62.825 62.825a3.964 3.964 0 0 1-1.845 1.045l-26.452 6.613a3.964 3.964 0 0 1-3.771-1.046 3.968 3.968 0 0 1-1.045-3.771l6.613-26.452a3.972 3.972 0 0 1 1.045-1.845l62.825-62.825c7.017-7.019 18.439-7.019 25.456 0 7.018 7.018 7.018 18.438-.001 25.456zm-2.672-12.728a9.993 9.993 0 0 0-2.945-7.111c-1.9-1.899-4.425-2.945-7.111-2.945s-5.211 1.046-7.111 2.945l-62.046 62.047-4.741 18.962 18.962-4.741 62.047-62.046a9.992 9.992 0 0 0 2.945-7.111z" fill="#000001" data-color="1"></path>
    </g>
</svg>