<svg preserveAspectRatio="xMidYMid meet" data-bbox="20 40 160.001 120" viewBox="20 40 160.001 120" height="200" width="200" xmlns="http://www.w3.org/2000/svg" data-type="color" role="presentation" aria-hidden="true" aria-label=""><defs><style>#comp-m3aplves__item-j9ples3e svg [data-color="1"] {fill: #007478;}</style></defs>
    <g>
        <path d="M49.206 78.298c-10.503 0-19.048-8.59-19.048-19.149S38.703 40 49.206 40s19.048 8.59 19.048 19.149-8.545 19.149-19.048 19.149zm0-30.638c-6.302 0-11.429 5.154-11.429 11.489s5.127 11.489 11.429 11.489 11.429-5.154 11.429-11.489S55.508 47.66 49.206 47.66z" fill="#112F5B" data-color="1"></path>
        <path d="M23.81 88.511c-2.104 0-3.81-1.714-3.81-3.83 0-7.743 6.266-14.043 13.968-14.043 2.104 0 3.81 1.714 3.81 3.83s-1.705 3.83-3.81 3.83c-3.501 0-6.349 2.863-6.349 6.383 0 2.115-1.705 3.83-3.809 3.83z" fill="#112F5B" data-color="1"></path>
        <path d="M74.603 88.511c-2.104 0-3.81-1.714-3.81-3.83 0-3.52-2.848-6.383-6.349-6.383-2.104 0-3.81-1.714-3.81-3.83s1.705-3.83 3.81-3.83c7.702 0 13.968 6.3 13.968 14.043.001 2.115-1.705 3.83-3.809 3.83z" fill="#112F5B" data-color="1"></path>
        <path d="M33.968 119.149c-7.702 0-13.968-6.3-13.968-14.043 0-2.115 1.705-3.83 3.81-3.83s3.81 1.714 3.81 3.83c0 3.52 2.848 6.383 6.349 6.383 2.104 0 3.81 1.714 3.81 3.83-.001 2.116-1.707 3.83-3.811 3.83z" fill="#112F5B" data-color="1"></path>
        <path d="M44.127 160c-7.702 0-13.968-6.3-13.968-14.043 0-2.115 1.705-3.83 3.81-3.83s3.81 1.714 3.81 3.83c0 3.52 2.848 6.383 6.349 6.383 2.104 0 3.81 1.714 3.81 3.83S46.231 160 44.127 160z" fill="#112F5B" data-color="1"></path>
        <path d="M54.286 160c-2.104 0-3.81-1.714-3.81-3.83s1.705-3.83 3.81-3.83c3.501 0 6.349-2.863 6.349-6.383 0-2.115 1.705-3.83 3.81-3.83 2.104 0 3.81 1.714 3.81 3.83C68.254 153.7 61.988 160 54.286 160z" fill="#112F5B" data-color="1"></path>
        <path d="M64.444 119.149c-2.104 0-3.81-1.714-3.81-3.83 0-2.115 1.705-3.83 3.81-3.83 3.501 0 6.349-2.863 6.349-6.383 0-2.115 1.705-3.83 3.81-3.83 2.104 0 3.81 1.714 3.81 3.83 0 7.743-6.267 14.043-13.969 14.043z" fill="#112F5B" data-color="1"></path>
        <path d="M23.81 108.936c-2.104 0-3.81-1.714-3.81-3.83V84.681c0-2.115 1.705-3.83 3.81-3.83s3.81 1.714 3.81 3.83v20.426c-.001 2.115-1.706 3.829-3.81 3.829z" fill="#112F5B" data-color="1"></path>
        <path d="M74.603 108.936c-2.104 0-3.81-1.714-3.81-3.83V84.681c0-2.115 1.705-3.83 3.81-3.83 2.104 0 3.81 1.714 3.81 3.83v20.426c0 2.115-1.706 3.829-3.81 3.829z" fill="#112F5B" data-color="1"></path>
        <path d="M33.968 149.787c-2.104 0-3.81-1.714-3.81-3.83v-30.638c0-2.115 1.705-3.83 3.81-3.83s3.81 1.714 3.81 3.83v30.638c0 2.116-1.706 3.83-3.81 3.83z" fill="#112F5B" data-color="1"></path>
        <path d="M54.286 160H44.127c-2.104 0-3.81-1.714-3.81-3.83s1.705-3.83 3.81-3.83h10.159c2.104 0 3.81 1.714 3.81 3.83S56.39 160 54.286 160z" fill="#112F5B" data-color="1"></path>
        <path d="M64.444 149.787c-2.104 0-3.81-1.714-3.81-3.83v-30.638c0-2.115 1.705-3.83 3.81-3.83 2.104 0 3.81 1.714 3.81 3.83v30.638c0 2.116-1.705 3.83-3.81 3.83z" fill="#112F5B" data-color="1"></path>
        <path d="M64.444 78.298H33.968c-2.104 0-3.81-1.714-3.81-3.83s1.705-3.83 3.81-3.83h30.476c2.104 0 3.81 1.714 3.81 3.83s-1.705 3.83-3.81 3.83z" fill="#112F5B" data-color="1"></path>
        <path d="M84.762 124.255c-2.104 0-3.81-1.714-3.81-3.83 0-7.743 6.266-14.043 13.968-14.043 2.104 0 3.81 1.714 3.81 3.83 0 2.115-1.705 3.83-3.81 3.83-3.501 0-6.349 2.863-6.349 6.383 0 2.116-1.705 3.83-3.809 3.83z" fill="#112F5B" data-color="1"></path>
        <path d="M115.238 124.255c-2.104 0-3.81-1.714-3.81-3.83 0-3.52-2.848-6.383-6.349-6.383-2.104 0-3.81-1.714-3.81-3.83 0-2.115 1.705-3.83 3.81-3.83 7.702 0 13.968 6.3 13.968 14.043.001 2.116-1.705 3.83-3.809 3.83z" fill="#112F5B" data-color="1"></path>
        <path d="M84.762 154.894c-2.104 0-3.81-1.714-3.81-3.83v-30.638c0-2.115 1.705-3.83 3.81-3.83 2.104 0 3.81 1.714 3.81 3.83v30.638c-.001 2.115-1.706 3.83-3.81 3.83z" fill="#112F5B" data-color="1"></path>
        <path d="M115.238 154.894c-2.104 0-3.81-1.714-3.81-3.83v-30.638c0-2.115 1.705-3.83 3.81-3.83 2.104 0 3.81 1.714 3.81 3.83v30.638c0 2.115-1.706 3.83-3.81 3.83z" fill="#112F5B" data-color="1"></path>
        <path d="M150.794 78.298c-10.503 0-19.048-8.59-19.048-19.149S140.291 40 150.794 40s19.048 8.59 19.048 19.149-8.545 19.149-19.048 19.149zm0-30.638c-6.302 0-11.429 5.154-11.429 11.489s5.127 11.489 11.429 11.489 11.429-5.154 11.429-11.489-5.128-11.489-11.429-11.489z" fill="#112F5B" data-color="1"></path>
        <path d="M125.397 88.511c-2.104 0-3.81-1.714-3.81-3.83 0-7.743 6.266-14.043 13.968-14.043 2.104 0 3.81 1.714 3.81 3.83s-1.705 3.83-3.81 3.83c-3.501 0-6.349 2.863-6.349 6.383 0 2.115-1.705 3.83-3.809 3.83z" fill="#112F5B" data-color="1"></path>
        <path d="M176.19 88.511c-2.104 0-3.81-1.714-3.81-3.83 0-3.52-2.848-6.383-6.349-6.383-2.104 0-3.81-1.714-3.81-3.83s1.705-3.83 3.81-3.83c7.702 0 13.968 6.3 13.968 14.043.001 2.115-1.704 3.83-3.809 3.83z" fill="#112F5B" data-color="1"></path>
        <path d="M135.556 119.149c-7.702 0-13.968-6.3-13.968-14.043 0-2.115 1.705-3.83 3.81-3.83 2.104 0 3.81 1.714 3.81 3.83 0 3.52 2.848 6.383 6.349 6.383 2.104 0 3.81 1.714 3.81 3.83-.002 2.116-1.707 3.83-3.811 3.83z" fill="#112F5B" data-color="1"></path>
        <path d="M145.714 160c-7.702 0-13.968-6.3-13.968-14.043 0-2.115 1.705-3.83 3.81-3.83s3.81 1.714 3.81 3.83c0 3.52 2.848 6.383 6.349 6.383 2.104 0 3.81 1.714 3.81 3.83s-1.707 3.83-3.811 3.83z" fill="#112F5B" data-color="1"></path>
        <path d="M155.873 160c-2.104 0-3.81-1.714-3.81-3.83s1.705-3.83 3.81-3.83c3.501 0 6.349-2.863 6.349-6.383 0-2.115 1.705-3.83 3.81-3.83 2.104 0 3.81 1.714 3.81 3.83-.001 7.743-6.267 14.043-13.969 14.043z" fill="#112F5B" data-color="1"></path>
        <path d="M166.032 119.149c-2.104 0-3.81-1.714-3.81-3.83 0-2.115 1.705-3.83 3.81-3.83 3.501 0 6.349-2.863 6.349-6.383 0-2.115 1.705-3.83 3.81-3.83s3.81 1.714 3.81 3.83c-.001 7.743-6.267 14.043-13.969 14.043z" fill="#112F5B" data-color="1"></path>
        <path d="M125.397 108.936c-2.104 0-3.81-1.714-3.81-3.83V84.681c0-2.115 1.705-3.83 3.81-3.83 2.104 0 3.81 1.714 3.81 3.83v20.426c-.001 2.115-1.706 3.829-3.81 3.829z" fill="#112F5B" data-color="1"></path>
        <path d="M176.19 108.936c-2.104 0-3.81-1.714-3.81-3.83V84.681c0-2.115 1.705-3.83 3.81-3.83s3.81 1.714 3.81 3.83v20.426c0 2.115-1.705 3.829-3.81 3.829z" fill="#112F5B" data-color="1"></path>
        <path d="M135.556 149.787c-2.104 0-3.81-1.714-3.81-3.83v-30.638c0-2.115 1.705-3.83 3.81-3.83s3.81 1.714 3.81 3.83v30.638c-.001 2.116-1.706 3.83-3.81 3.83z" fill="#112F5B" data-color="1"></path>
        <path d="M155.873 160h-10.159c-2.104 0-3.81-1.714-3.81-3.83s1.705-3.83 3.81-3.83h10.159c2.104 0 3.81 1.714 3.81 3.83s-1.706 3.83-3.81 3.83z" fill="#112F5B" data-color="1"></path>
        <path d="M166.032 149.787c-2.104 0-3.81-1.714-3.81-3.83v-30.638c0-2.115 1.705-3.83 3.81-3.83 2.104 0 3.81 1.714 3.81 3.83v30.638c-.001 2.116-1.706 3.83-3.81 3.83z" fill="#112F5B" data-color="1"></path>
        <path d="M166.032 78.298h-30.476c-2.104 0-3.81-1.714-3.81-3.83s1.705-3.83 3.81-3.83h30.476c2.104 0 3.81 1.714 3.81 3.83s-1.706 3.83-3.81 3.83z" fill="#112F5B" data-color="1"></path>
        <path d="M100 114.043c-9.103 0-16.508-7.445-16.508-16.596S90.897 80.851 100 80.851s16.508 7.445 16.508 16.596-7.405 16.596-16.508 16.596zm0-25.532c-4.901 0-8.889 4.009-8.889 8.936s3.988 8.936 8.889 8.936 8.889-4.009 8.889-8.936-3.988-8.936-8.889-8.936z" fill="#112F5B" data-color="1"></path>
        <path d="M110.159 160H89.841c-2.104 0-3.81-1.714-3.81-3.83s1.705-3.83 3.81-3.83h20.317c2.104 0 3.81 1.714 3.81 3.83s-1.705 3.83-3.809 3.83z" fill="#112F5B" data-color="1"></path>
        <path d="M89.841 160c-4.901 0-8.889-4.009-8.889-8.936 0-2.115 1.705-3.83 3.81-3.83 2.104 0 3.81 1.714 3.81 3.83 0 .704.569 1.277 1.27 1.277 2.104 0 3.81 1.714 3.81 3.83S91.945 160 89.841 160z" fill="#112F5B" data-color="1"></path>
        <path d="M110.159 160c-2.104 0-3.81-1.714-3.81-3.83s1.705-3.83 3.81-3.83c.7 0 1.27-.572 1.27-1.277 0-2.115 1.705-3.83 3.81-3.83 2.104 0 3.81 1.714 3.81 3.83-.001 4.928-3.989 8.937-8.89 8.937z" fill="#112F5B" data-color="1"></path>
        <path d="M105.079 114.043H94.921c-2.104 0-3.81-1.714-3.81-3.83 0-2.115 1.705-3.83 3.81-3.83h10.159c2.104 0 3.81 1.714 3.81 3.83-.001 2.115-1.706 3.83-3.811 3.83z" fill="#112F5B" data-color="1"></path>
    </g>
</svg>