<svg preserveAspectRatio="xMidYMid meet" data-bbox="27 25 146 150" viewBox="27 25 146 150" xmlns="http://www.w3.org/2000/svg" data-type="color" role="presentation" aria-hidden="true" aria-label=""><defs><style>#comp-m37vlhuz4 svg [data-color="1"] {fill: #007478;}</style></defs>
    <g>
        <path d="M48.4 101.6H30.2c-1.7 0-3.2-1.5-3.2-3.2 0-1.7 1.5-3.2 3.2-3.2h18.2c1.7 0 3.2 1.5 3.2 3.2-.1 1.8-1.4 3.2-3.2 3.2z" fill="#e55e75" data-color="1"></path>
        <path d="M169.8 101.6h-18.2c-1.7 0-3.2-1.5-3.2-3.2 0-1.7 1.5-3.2 3.2-3.2h18.2c1.7 0 3.2 1.5 3.2 3.2 0 1.8-1.5 3.2-3.2 3.2z" fill="#e55e75" data-color="1"></path>
        <path d="M100 49.7c-1.7 0-3.2-1.5-3.2-3.2V28.2c0-1.7 1.5-3.2 3.2-3.2s3.2 1.5 3.2 3.2v18.3c0 1.7-1.5 3.2-3.2 3.2z" fill="#e55e75" data-color="1"></path>
        <path d="M63.5 65c-.8 0-1.6-.3-2.3-.9l-12.8-13c-1.3-1.3-1.3-3.3 0-4.6 1.3-1.3 3.3-1.3 4.6 0l12.9 13c1.3 1.3 1.3 3.3 0 4.6-.8.5-1.6.9-2.4.9z" fill="#e55e75" data-color="1"></path>
        <path d="M136.5 65c-.8 0-1.6-.3-2.3-.9-1.3-1.3-1.3-3.3 0-4.6l12.9-13c1.3-1.3 3.3-1.3 4.6 0 1.3 1.3 1.3 3.3 0 4.6l-12.9 13c-.7.5-1.5.9-2.3.9z" fill="#e55e75" data-color="1"></path>
        <path d="M112 158.7H88c-1.7 0-3.2-1.5-3.2-3.2 0-1.7 1.5-3.2 3.2-3.2h24c1.7 0 3.2 1.5 3.2 3.2-.1 1.8-1.5 3.2-3.2 3.2z" fill="#e55e75" data-color="1"></path>
        <path d="M114 166.9H86c-1.7 0-3.2-1.5-3.2-3.2 0-1.7 1.5-3.2 3.2-3.2h27.8c1.7 0 3.2 1.5 3.2 3.2.1 1.7-1.3 3.2-3 3.2z" fill="#e55e75" data-color="1"></path>
        <path d="M107 175H93c-1.7 0-3.2-1.5-3.2-3.2 0-1.7 1.5-3.2 3.2-3.2h14c1.7 0 3.2 1.5 3.2 3.2-.1 1.7-1.4 3.2-3.2 3.2z" fill="#e55e75" data-color="1"></path>
        <path d="M113.1 149.8H86.9c-5.6 0-10-4.6-10-10.1v-2.3c0-4.4-2.4-10.5-6.8-17.5-5.6-7-8.5-15.4-8.5-24.2C61.6 74.4 78.8 57 100 57s38.4 17.4 38.4 38.7c0 8.9-2.9 17.3-8.5 24.2-4.3 6.9-6.8 13.1-6.8 17.5v2.3c.1 5.6-4.4 10.1-10 10.1zM100 63.5c-17.7 0-32 14.5-32 32.3 0 7.5 2.5 14.5 7.2 20.3l.2.3c3.6 5.7 7.8 13.9 7.8 21v2.3c0 2.1 1.6 3.7 3.7 3.7h26.4c2 0 3.7-1.6 3.7-3.7v-2.3c0-7.1 4.3-15.4 7.8-21l.2-.3c4.7-5.9 7.2-12.9 7.2-20.3C132 78 117.7 63.5 100 63.5z" fill="#e55e75" data-color="1"></path>
    </g>
</svg>