<svg preserveAspectRatio="xMidYMid meet" data-bbox="46.5 20 107 160" viewBox="46.5 20 107 160" height="200" width="200" xmlns="http://www.w3.org/2000/svg" data-type="color" role="presentation" aria-hidden="true" aria-label=""><defs><style>#comp-m3avmuw05__item-j9ples3e svg [data-color="1"] {fill: #007478;}</style></defs>
    <g>
        <path d="M108.352 32.349a1.77 1.77 0 0 1-1.775-1.766v-.501c0-3.611-2.95-6.548-6.577-6.548s-6.578 2.937-6.578 6.548v.501a1.77 1.77 0 0 1-1.775 1.766 1.77 1.77 0 0 1-1.775-1.766v-.501C89.872 24.522 94.416 20 100 20c5.583 0 10.126 4.522 10.126 10.081v.501a1.77 1.77 0 0 1-1.774 1.767z" fill="#04723D" data-color="1"></path>
        <path d="M114.096 55.187c-2.397 0-4.438-1.784-4.747-4.149l-.049-.372c-.568-4.333-4.306-7.6-8.697-7.6-4.389 0-8.127 3.267-8.696 7.601l-.049.371c-.312 2.367-2.353 4.15-4.747 4.15h-1.208c-2.64 0-4.787-2.138-4.787-4.765V32.898c0-2.252 1.84-4.083 4.102-4.083h29.561c2.261 0 4.101 1.831 4.101 4.083v17.524c.001 2.628-2.146 4.765-4.784 4.765zm-13.493-15.653c6.167 0 11.418 4.59 12.216 10.677l.049.372a1.24 1.24 0 0 0 1.228 1.072c.682 0 1.237-.553 1.237-1.232V32.898a.552.552 0 0 0-.552-.55H85.22a.552.552 0 0 0-.553.55v17.524c0 .68.556 1.232 1.238 1.232h1.208a1.24 1.24 0 0 0 1.228-1.074l.049-.369c.796-6.087 6.048-10.677 12.213-10.677z" fill="#04723D" data-color="1"></path>
        <path d="M148.951 180H51.049c-2.508 0-4.549-2.031-4.549-4.528V40.355c0-2.496 2.041-4.528 4.549-4.528h22.428c.98 0 1.775.791 1.775 1.766s-.794 1.766-1.775 1.766H51.049c-.552 0-1 .446-1 .995v135.117c0 .549.448.995 1 .995h97.902c.552 0 1-.446 1-.995V40.355a.998.998 0 0 0-1-.995h-23.635c-.98 0-1.775-.791-1.775-1.766s.794-1.766 1.775-1.766h23.635c2.508 0 4.549 2.031 4.549 4.528v135.117c0 2.496-2.041 4.527-4.549 4.527z" fill="#04723D" data-color="1"></path>
        <path d="M110.713 106.721c-.891 0-1.66-.668-1.761-1.572l-.808-7.243a.9.9 0 0 0-.232-.432H92.085a.913.913 0 0 0-.229.431l-.808 7.244a1.77 1.77 0 0 1-1.959 1.561 1.768 1.768 0 0 1-1.568-1.95l.846-7.513c.349-1.661 1.533-2.943 3.018-3.265l.378-.041 16.85.041c1.483.322 2.667 1.603 3.02 3.263l.026.168.819 7.347a1.768 1.768 0 0 1-1.765 1.961z" fill="#04723D" data-color="1"></path>
        <path d="M100 91.785c-3.598 0-6.526-3.09-6.526-6.888s2.928-6.889 6.526-6.889 6.524 3.091 6.524 6.889-2.926 6.888-6.524 6.888zm0-10.245c-1.642 0-2.977 1.506-2.977 3.356 0 1.85 1.335 3.356 2.977 3.356 1.64 0 2.975-1.506 2.975-3.356 0-1.85-1.335-3.356-2.975-3.356z" fill="#04723D" data-color="1"></path>
        <path d="M118.278 106.721H81.722V70.332h36.557v36.389zm-33.007-3.533h29.458V73.865H85.271v29.323z" fill="#04723D" data-color="1"></path>
        <path d="M134.243 129.372H65.756c-.98 0-1.775-.791-1.775-1.766s.794-1.766 1.775-1.766h68.487c.98 0 1.775.791 1.775 1.766s-.795 1.766-1.775 1.766z" fill="#04723D" data-color="1"></path>
        <path d="M134.243 144.419H65.756c-.98 0-1.775-.791-1.775-1.766s.794-1.766 1.775-1.766h68.487c.98 0 1.775.791 1.775 1.766s-.795 1.766-1.775 1.766z" fill="#04723D" data-color="1"></path>
        <path d="M134.243 159.467H65.756a1.77 1.77 0 0 1-1.775-1.766 1.77 1.77 0 0 1 1.775-1.766h68.487c.98 0 1.775.791 1.775 1.766a1.772 1.772 0 0 1-1.775 1.766z" fill="#04723D" data-color="1"></path>
    </g>
</svg>